<?xml version="1.0" encoding="UTF-8" standalone="no"?>
<svg
   xmlns:dc="http://purl.org/dc/elements/1.1/"
   xmlns:cc="http://creativecommons.org/ns#"
   xmlns:rdf="http://www.w3.org/1999/02/22-rdf-syntax-ns#"
   xmlns:svg="http://www.w3.org/2000/svg"
   xmlns="http://www.w3.org/2000/svg"
   version="1.1"
   id="Layer_1"
   x="0"
   y="0"
   xml:space="preserve"
   width="72"
   height="34"><metadata
     id="metadata16"><rdf:RDF><cc:Work
         rdf:about=""><dc:format>image/svg+xml</dc:format><dc:type
           rdf:resource="http://purl.org/dc/dcmitype/StillImage" /><dc:title></dc:title></cc:Work></rdf:RDF></metadata><defs
     id="defs14" /><style
     type="text/css"
     id="style2">.st0{fill-rule:evenodd;clip-rule:evenodd;fill:#6772e5}</style><rect
     stroke-opacity="1"
     stroke-linejoin="miter"
     stroke-linecap="butt"
     stroke-width="1"
     stroke="none"
     fill-rule="evenodd"
     fill-opacity="1"
     fill="#7a64c8"
     id="rect46"
     width="72"
     height="34"
     x="0"
     y="0"
     ry="0" /><path
     style="fill:#ffffff"
     stroke-width="1"
     stroke="none"
     fill-rule="evenodd"
     fill="#fff"
     clip-rule="evenodd"
     id="path4"
     d="M63.692 17.215c0-3.938-1.907-7.046-5.554-7.046-3.661 0-5.876 3.108-5.876 7.016 0 4.63 2.615 6.969 6.369 6.969 1.83 0 3.215-.416 4.261-1v-3.077c-1.046.523-2.246.846-3.769.846-1.492 0-2.815-.523-2.985-2.338h7.524c0-.2.03-1 .03-1.37zm-7.6-1.461c0-1.739 1.062-2.462 2.031-2.462.939 0 1.939.723 1.939 2.462z"
     class="st0" /><path
     style="fill:#ffffff"
     stroke-width="1"
     stroke="none"
     fill-rule="evenodd"
     fill="#fff"
     clip-rule="evenodd"
     id="path6"
     d="M46.323 10.17c-1.508 0-2.477.707-3.015 1.2l-.2-.955h-3.385v17.939l3.846-.816.016-4.353c.554.4 1.369.969 2.723.969 2.754 0 5.261-2.216 5.261-7.092-.015-4.462-2.554-6.893-5.246-6.893zm-.923 10.6c-.908 0-1.446-.324-1.815-.724l-.016-5.708c.4-.446.954-.753 1.831-.753 1.4 0 2.37 1.569 2.37 3.584 0 2.062-.955 3.6-2.37 3.6z"
     class="st0" /><path
     stroke-width="1"
     stroke="none"
     fill-rule="evenodd"
     fill="#fff"
     clip-rule="evenodd"
     d="M38.292 5.308l-3.861.815v3.139l3.861-.831z"
     id="polygon8" /><path
     style="fill:#ffffff"
     d="M34.431 10.431h3.862v13.462h-3.862z"
     stroke-width="1"
     stroke="none"
     fill-rule="evenodd"
     fill="#fff"
     clip-rule="evenodd"
     id="rect10"
     class="st0" /><path
     style="fill:#ffffff"
     stroke-width="1"
     stroke="none"
     fill-rule="evenodd"
     fill="#fff"
     clip-rule="evenodd"
     id="path12"
     d="M30.292 11.57l-.246-1.14h-3.323v13.462h3.846V14.77c.908-1.184 2.446-.969 2.923-.8v-3.538c-.492-.185-2.292-.523-3.2 1.138z"
     class="st0" /><path
     style="fill:#ffffff"
     stroke-width="1"
     stroke="none"
     fill-rule="evenodd"
     fill="#fff"
     clip-rule="evenodd"
     id="path14"
     d="M22.6 7.092l-3.754.8-.015 12.323c0 2.277 1.707 3.954 3.984 3.954 1.262 0 2.185-.23 2.693-.507v-3.124c-.493.2-2.923.908-2.923-1.369v-5.461h2.923V10.43h-2.923z"
     class="st0" /><path
     style="fill:#ffffff"
     stroke-width="1"
     stroke="none"
     fill-rule="evenodd"
     fill="#fff"
     clip-rule="evenodd"
     id="path16"
     d="M12.2 14.338c0-.6.492-.83 1.308-.83 1.169 0 2.646.354 3.815.984v-3.615c-1.277-.508-2.538-.708-3.815-.708-3.123 0-5.2 1.631-5.2 4.354 0 4.246 5.846 3.57 5.846 5.4 0 .708-.616.939-1.477.939-1.277 0-2.908-.524-4.2-1.231v3.661c1.43.616 2.877.877 4.2.877 3.2 0 5.4-1.584 5.4-4.338-.015-4.585-5.877-3.77-5.877-5.493z"
     class="st0" /></svg>